HIERARCHY
ROOT root     
{
	OFFSET 0.0000 0.0000 0.0000
	CHANNELS 6 Xposition Yposition Zposition Zrotation Yrotation Xrotation
	JOINT pelvis   
	{
		OFFSET 0.0000 0.0000 0.0000
		CHANNELS 3 Zrotation Yrotation Xrotation
		JOINT thorax   
		{
			OFFSET 0.0000 23.0750 -5.0000
			CHANNELS 3 Zrotation Yrotation Xrotation
			JOINT rclavicle
			{
				OFFSET 0.0000 28.0009 0.0000
				CHANNELS 3 Zrotation Yrotation Xrotation
				JOINT rhumerus 
				{
					OFFSET -18.5725 5.5939 0.0000
					CHANNELS 3 Zrotation Yrotation Xrotation
					JOINT rradius  
					{
						OFFSET -24.8459 0.0000 0.0000
						CHANNELS 3 Zrotation Yrotation Xrotation
						JOINT rhand    
						{
							OFFSET -24.5477 0.0000 0.0000
							CHANNELS 3 Zrotation Yrotation Xrotation
							End Site
							{
								OFFSET -8.1826 0.0000 0.0000
							}
						}
					}
				}
			}
			JOINT lclavicle
			{
				OFFSET 0.0000 28.0009 0.0000
				CHANNELS 3 Zrotation Yrotation Xrotation
				JOINT lhumerus 
				{
					OFFSET 18.5725 5.5939 0.0000
					CHANNELS 3 Zrotation Yrotation Xrotation
					JOINT lradius  
					{
						OFFSET 24.8459 0.0000 0.0000
						CHANNELS 3 Zrotation Yrotation Xrotation
						JOINT lhand    
						{
							OFFSET 24.5477 0.0000 0.0000
							CHANNELS 3 Zrotation Yrotation Xrotation
							End Site
							{
								OFFSET 8.1826 0.0000 0.0000
							}
						}
					}
				}
			}
			JOINT head     
			{
				OFFSET 0.0000 35.2030 0.0000
				CHANNELS 3 Zrotation Yrotation Xrotation
				End Site
				{
					OFFSET 0.0000 11.7343 0.0000
				}
			}
		}
		JOINT rfemur   
		{
			OFFSET -8.2817 0.0000 0.0000
			CHANNELS 3 Zrotation Yrotation Xrotation
			JOINT rtibia   
			{
				OFFSET 0.0000 -43.3627 0.0000
				CHANNELS 3 Zrotation Yrotation Xrotation
				JOINT rfoot    
				{
					OFFSET 0.0000 -38.2947 0.0000
					CHANNELS 3 Zrotation Yrotation Xrotation
					JOINT rtoes    
					{
						OFFSET 0.0000 0.0000 16.6054
						CHANNELS 3 Zrotation Yrotation Xrotation
						End Site
						{
							OFFSET 0.0000 0.0000 5.5351
						}
					}
				}
			}
		}
		JOINT lfemur   
		{
			OFFSET 8.2817 0.0000 0.0000
			CHANNELS 3 Zrotation Yrotation Xrotation
			JOINT ltibia   
			{
				OFFSET 0.0000 -43.3627 0.0000
				CHANNELS 3 Zrotation Yrotation Xrotation
				JOINT lfoot    
				{
					OFFSET 0.0000 -38.2947 0.0000
					CHANNELS 3 Zrotation Yrotation Xrotation
					JOINT ltoes    
					{
						OFFSET 0.0000 0.0000 16.6054
						CHANNELS 3 Zrotation Yrotation Xrotation
						End Site
						{
							OFFSET 0.0000 0.0000 5.5351
						}
					}
				}
			}
		}
	}
}
MOTION
Frames: 13
Frame Time: .0333333
-82.102 84.096 2.0046 13.3446 84.2096 33.5034 0 -0 0 7.59066 -13.6279 -5.28556 28.1394 -10.3081 1.47266e-05 55.8641 -5.54789 -6.99035 -6.9147e-07 69.4175 -9.98267e-07 -9.19315 3.18267 -0.2559 -25.2428 12.4945 9.53291e-06 -39.6697 -11.2711 19.2057 -180 -74.6459 180 6.63113 -2.30383 -0.133499 -11.1282 9.78323 -17.5616 6.52207 -6.45632 -41.3102 -0 -0 29.8817 1.46492e-06 2.62291 3.89365 0.178202 8.63711e-07 -33.3237 -3.05361 8.43548 1.26375 -0 -0 23.7879 2.07327e-05 -5.41753 16.2968 -1.52453 -2.91993e-05 -78.7233 
-81.048 83.833 2.0642 15.3123 84.2049 35.3814 0 -0 0 7.83685 -13.6391 -5.30903 28.1001 -10.2447 -2.09432e-05 55.7325 -5.3368 -7.05164 -0 68.8036 -0 -9.48379 3.03007 -0.251397 -25.4346 12.5667 6.57622e-05 -39.668 -11.2764 19.1369 -180 -74.6063 180 6.38942 -2.40264 -0.1341 -12.2139 9.80788 -17.7306 5.9857 -6.08126 -41.6389 -0 -0 32.4344 -4.35253e-07 2.13598 2.36073 0.0880006 9.03978e-07 -28.1345 -2.91155 8.62363 1.25462 -0 -0 25.1657 2.17021e-05 -6.19322 16.5995 -1.77574 -3.02194e-05 -78.6972 
-80.001 83.596 2.1498 16.807 84.3292 36.7618 0 -0 0 8.17133 -13.695 -5.30518 28.0745 -10.1742 8.09542e-05 55.5792 -5.03432 -7.11547 -9.49079e-07 68.1204 -6.41628e-07 -9.77716 2.84737 -0.243595 -25.6204 12.6257 -5.58965e-06 -39.7708 -11.2787 19.1121 -180 -74.7571 180 6.1535 -2.49114 -0.1339 -13.247 9.82455 -17.8523 5.57465 -5.77451 -41.7842 -0 -0 34.7488 4.53647e-07 1.62191 0.857209 0.0243003 -3.5308e-08 -24.0633 -2.59826 8.84129 1.14443 -0 -0 26.7294 8.24794e-06 -7.07587 17.0662 -2.08628 6.58718e-05 -78.6367 
-78.966 83.392 2.263 17.9256 84.5813 37.7575 0 -0 0 8.59016 -13.7914 -5.29242 28.0689 -10.0998 1.04432e-05 55.4093 -4.64509 -7.18821 -6.15528e-07 67.3759 -9.23364e-07 -10.0604 2.63643 -0.2321 -25.7987 12.6645 0.000109938 -39.9707 -11.2719 19.134 -180 -75.095 180 5.93208 -2.56088 -0.132701 -14.2041 9.83214 -17.9135 5.31289 -5.5462 -41.7408 -0 -0 36.7118 -7.3213e-08 1.08869 -0.548009 -0.0104 -2.87556e-08 -21.3574 -2.11935 9.07859 0.912103 -0 -0 28.4677 -1.26835e-05 -8.0337 17.7381 -2.46226 4.48511e-05 -78.4682 
-77.949 83.225 2.4047 18.7339 84.9684 38.4499 0 -0 0 9.08834 -13.9214 -5.2933 28.0834 -10.0226 -5.56937e-06 55.2299 -4.18281 -7.27786 -0 66.5753 -0 -10.3255 2.40095 -0.217 -25.9709 12.6783 -3.923e-05 -40.254 -11.2491 19.209 -180 -75.6135 180 5.73289 -2.60266 -0.1303 -15.0663 9.82583 -17.9007 5.20983 -5.39274 -41.516 -0 -0 38.2568 -2.71304e-07 0.530099 -1.81777 -0.0168 -3.99008e-08 -20.007 -1.48695 9.32323 0.533701 -0 -0 30.368 3.53031e-05 -9.02651 18.6312 -2.90545 8.60926e-06 -78.0793 
-76.955 83.096 2.5711 19.4155 85.4726 39.0392 0 -0 0 9.63572 -14.0717 -5.32824 28.1245 -9.94485 -2.32611e-05 55.0488 -3.66599 -7.38891 -0 65.7366 -0 -10.5715 2.14745 -0.198708 -26.1294 12.6634 2.11411e-05 -40.6035 -11.2097 19.3362 -180 -76.3198 180 5.56141 -2.60811 -0.126704 -15.8159 9.80363 -17.8053 5.24935 -5.31425 -41.1404 -0 -0 39.3691 2.36999e-08 -0.0551997 -2.9404 0.00280004 1.1965e-08 -19.8338 -0.742397 9.5496 -0.00609981 -0 -0 32.4021 4.38617e-05 -9.99323 19.7374 -3.40545 4.01357e-05 -77.3223 
-75.985 83.006 2.7562 20.2588 86.0801 39.8161 0 -0 0 10.1927 -14.2312 -5.40451 28.1929 -9.86888 -5.92841e-05 54.8786 -3.11309 -7.52431 -0 64.8804 -0 -10.8008 1.88497 -0.178196 -26.2689 12.6185 0.000210944 -40.9992 -11.1537 19.5182 -180 -77.1927 180 5.42023 -2.56808 -0.1216 -16.4343 9.7592 -17.6232 5.40027 -5.30704 -40.6427 -0 -0 40.0681 -1.88996e-07 -0.667501 -3.91847 0.0455994 2.47552e-08 -20.5333 0.0645988 9.73512 -0.707413 -0 -0 34.5383 2.13766e-05 -10.8692 21.0226 -3.94042 -2.75364e-05 -76.0586 
-75.041 82.953 2.957 21.6025 86.7436 41.1332 0 -0 0 10.7383 -14.3857 -5.52513 28.2801 -9.79487 -9.83326e-05 54.7338 -2.5422 -7.68527 -8.26582e-07 64.0298 -5.16805e-07 -11.0201 1.62544 -0.156804 -26.3922 12.5436 0.000114176 -41.4144 -11.0805 19.7437 -180 -78.2224 180 5.31001 -2.47648 -0.114902 -16.9213 9.68785 -17.3591 5.63421 -5.34953 -40.0439 -0 -0 40.3898 7.64927e-07 -1.31678 -4.7551 0.109201 1.79038e-07 -21.7562 0.900797 9.87176 -1.56591 -0 -0 36.7436 2.65548e-05 -11.6017 22.4188 -4.47709 1.98198e-05 -74.2256 
-74.122 82.934 3.1635 24.4531 87.4637 43.9823 0 -0 0 11.2178 -14.5212 -5.68427 28.3861 -9.72297 -2.36461e-05 54.6284 -1.97238 -7.86692 -4.96249e-07 63.206 -8.06548e-07 -11.2398 1.37924 -0.135696 -26.4929 12.4431 0.00015271 -41.8288 -10.9955 20.011 -180 -79.3884 180 5.22785 -2.32783 -0.106303 -17.2682 9.58393 -17.0199 5.89764 -5.43458 -39.3788 -0 -0 40.404 -2.97702e-06 -1.99224 -5.46528 0.189801 -4.58653e-07 -23.1357 1.7019 9.94037 -2.56551 -0 -0 38.9798 1.96252e-05 -12.1243 23.8413 -4.96291 4.78993e-06 -71.7886 
-73.226 82.946 3.3692 30.9009 88.1458 50.4644 0 -0 0 11.6013 -14.6277 -5.87104 28.5043 -9.6508 6.64048e-05 54.5702 -1.41773 -8.06225 -0 62.4329 -0 -11.4689 1.15754 -0.116202 -26.5728 12.3232 -3.46371e-06 -42.2152 -10.9027 20.3086 180 -80.6734 180 5.16908 -2.11939 -0.0957016 -17.4834 9.44441 -16.6241 6.1495 -5.54289 -38.668 -0 -0 40.1844 -7.87411e-07 -2.68855 -6.06208 0.2841 -1.02715e-06 -24.3489 2.42726 9.93868 -3.68632 -0 -0 41.2123 -9.76531e-05 -12.3942 25.1939 -5.34403 1.26257e-05 -68.8644 
-72.351 82.987 3.5684 46.3094 88.7372 65.9304 0 -0 0 11.8682 -14.6946 -6.07149 28.6243 -9.57471 -1.65184e-05 54.57 -0.889009 -8.26064 -0 61.7279 -0 -11.7158 0.970094 -0.0994994 -26.6381 12.1898 -1.92267e-06 -42.5522 -10.8083 20.6273 -180 -82.0493 180 5.12652 -1.85106 -0.0828984 -17.5816 9.26591 -16.1916 6.35473 -5.65366 -37.9302 -0 -0 39.8026 -1.22482e-07 -3.39661 -6.55618 0.388301 1.48625e-07 -25.173 3.04676 9.86948 -4.90682 -0 -0 43.4129 7.99885e-06 -12.3811 26.3811 -5.57106 1.03591e-06 -65.6662 
-71.496 83.053 3.7545 79.7349 89.0303 99.4276 0 -0 0 11.9983 -14.7178 -6.26884 28.7363 -9.49011 -7.19981e-05 54.6313 -0.393048 -8.4484 -0 61.105 -0 -11.985 0.823999 -0.0865013 -26.6912 12.0538 -6.53009e-05 -42.8192 -10.7157 20.9568 180 -83.4873 180 5.09222 -1.52569 -0.067802 -17.5799 9.05007 -15.7477 6.48187 -5.75586 -37.1806 -0 -0 39.3342 -2.74505e-06 -4.09763 -6.95867 0.497305 9.91309e-07 -25.5055 3.53165 9.73595 -6.20079 -0 -0 45.5534 0.000101668 -12.071 27.3235 -5.60651 6.66465e-06 -62.4664 
-70.658 83.143 3.9262 115.669 88.8576 135.445 0 -0 0 12.0036 -14.6917 -6.4504 28.8242 -9.39327 5.85642e-05 54.7526 0.0716802 -8.60897 -4.38171e-07 60.5728 -7.50257e-07 -12.274 0.725106 -0.0779974 -26.7438 11.9189 -6.51488e-05 -43.0048 -10.6196 21.2845 180 -84.9642 180 5.0555 -1.14918 -0.0506986 -17.507 8.79909 -15.317 6.5253 -5.82932 -36.4322 -0 -0 38.8261 -5.5205e-06 -4.7818 -7.27078 0.606601 -1.61757e-06 -25.3739 3.88371 9.5514 -7.54904 -0 -0 47.6123 -1.35639e-06 -11.4778 27.9632 -5.43869 -9.70591e-06 -59.5767 
